<?xml version="1.0" standalone="no"?>
<!DOCTYPE svg PUBLIC "-//W3C//DTD SVG 20010904//EN"
 "http://www.w3.org/TR/2001/REC-SVG-20010904/DTD/svg10.dtd">
<svg version="1.0" xmlns="http://www.w3.org/2000/svg"
 width="800.000000pt" height="392.000000pt" viewBox="0 0 800.000000 392.000000"
 preserveAspectRatio="xMidYMid meet">
<metadata>
Created by potrace 1.13, written by Peter Selinger 2001-2015
</metadata>
<g transform="translate(0.000000,392.000000) scale(0.100000,-0.100000)"
fill="#000000" stroke="none">
<path d="M3869 3357 c-35 -22 -407 -244 -569 -340 -47 -28 -88 -55 -92 -61 -4
-6 -7 -200 -5 -431 l2 -419 354 -213 c195 -117 357 -213 361 -213 3 0 29 16
59 35 29 19 54 35 56 35 2 0 79 46 172 102 92 56 177 106 188 112 77 43 235
139 235 144 0 4 2 195 3 425 l2 418 -32 25 c-17 13 -34 24 -37 24 -3 0 -146
84 -318 188 -172 103 -320 188 -328 189 -8 1 -31 -8 -51 -20z"/>
<path d="M4989 1385 c-41 -22 -61 -61 -61 -116 l1 -49 -39 0 c-41 0 -52 -13
-39 -47 6 -18 16 -23 44 -23 l35 0 -3 -197 -2 -198 35 0 35 0 3 197 2 196 68
4 c37 1 84 1 105 -1 l37 -3 0 -150 c0 -164 7 -190 59 -227 20 -15 44 -21 80
-21 65 0 100 21 93 55 -4 23 -6 24 -68 18 -61 -6 -64 -5 -73 20 -6 14 -11 88
-12 164 l-1 138 63 5 c63 5 64 5 67 37 l3 32 -67 3 -68 3 0 45 c-1 45 -1 45
-36 45 -35 0 -35 0 -38 -47 l-3 -48 -105 0 -104 0 0 44 c0 58 16 70 85 63 49
-5 56 -3 66 15 10 18 8 24 -12 39 -29 23 -112 25 -150 4z"/>
<path d="M735 1330 c-67 -33 -109 -76 -146 -146 -34 -67 -35 -190 0 -256 38
-75 77 -114 145 -147 56 -27 76 -31 145 -31 86 0 151 21 199 63 26 24 27 33 8
53 -19 18 -40 18 -56 -2 -40 -47 -177 -60 -255 -23 -49 23 -115 92 -115 120 0
10 -4 21 -10 24 -5 3 -10 35 -10 70 0 35 5 67 10 70 6 3 10 14 10 24 0 9 16
36 35 58 84 98 219 111 341 33 42 -26 81 15 48 51 -10 11 -42 31 -71 45 -43
19 -70 24 -136 24 -70 -1 -91 -5 -142 -30z"/>
<path d="M3655 1348 c-143 -47 -225 -153 -225 -290 0 -180 132 -308 318 -308
67 0 86 5 142 33 68 34 83 56 55 84 -14 13 -21 14 -34 5 -56 -40 -93 -52 -161
-52 -85 0 -147 25 -192 79 -99 119 -65 296 72 369 33 17 58 22 119 22 69 0 82
-3 126 -31 51 -32 76 -31 83 4 4 19 -69 69 -124 85 -49 14 -137 14 -179 0z"/>
<path d="M5785 1347 c-3 -7 -4 -143 -3 -302 l3 -290 242 -3 242 -2 14 32 c8
18 24 54 36 81 l21 47 160 0 160 0 21 -47 c52 -117 49 -113 85 -113 43 0 43
10 3 97 -44 96 -73 160 -99 218 -12 28 -35 77 -50 110 -15 33 -35 78 -45 100
-37 86 -36 85 -77 85 -33 0 -40 -4 -49 -27 -6 -16 -21 -50 -33 -78 -13 -27
-34 -72 -46 -100 -12 -27 -33 -74 -46 -102 -13 -29 -35 -79 -49 -110 -56 -125
-72 -154 -78 -139 -5 14 -31 16 -172 16 l-165 0 0 270 0 270 -35 0 c-20 0 -38
-6 -40 -13z m734 -119 c42 -97 74 -167 92 -202 11 -21 18 -41 16 -43 -3 -2
-61 -2 -130 -1 l-126 3 14 30 c16 35 64 142 90 203 11 23 21 42 24 42 4 0 12
-15 20 -32z"/>
<path d="M6895 1347 c-3 -7 -4 -143 -3 -302 l3 -290 175 -3 c207 -3 247 5 295
61 57 66 56 154 -2 212 -19 19 -42 35 -51 35 -13 0 -10 6 11 25 84 79 65 205
-38 254 -40 19 -63 21 -215 21 -128 0 -172 -3 -175 -13z m347 -69 c41 -24 50
-38 50 -83 0 -53 -4 -59 -44 -79 -23 -12 -63 -16 -155 -16 l-123 0 0 88 c0 49
3 92 7 95 12 13 242 8 265 -5z m9 -260 c94 -32 108 -140 23 -184 -19 -10 -66
-14 -165 -14 l-139 0 0 105 0 105 124 0 c68 0 138 -5 157 -12z"/>
<path d="M2620 1270 l0 -50 -41 0 c-39 0 -40 -1 -37 -32 3 -30 6 -33 41 -36
l37 -3 0 -151 c0 -167 10 -207 61 -233 41 -22 121 -19 150 4 21 17 22 22 11
46 -10 22 -15 25 -27 15 -7 -6 -33 -10 -57 -8 -61 4 -68 23 -68 191 l0 137 60
0 c50 0 61 3 70 21 21 38 6 49 -65 49 l-65 0 0 50 0 50 -35 0 -35 0 0 -50z"/>
<path d="M1215 1208 c-3 -7 -4 -112 -3 -233 l3 -220 40 0 40 0 1 151 c2 162
10 196 57 227 13 9 42 17 63 19 36 3 39 5 39 33 0 26 -4 30 -29 33 -34 4 -85
-15 -107 -40 -22 -24 -27 -23 -31 10 -2 22 -8 28 -36 30 -20 2 -34 -2 -37 -10z"/>
<path d="M1490 1206 c0 -8 9 -31 19 -53 28 -57 69 -148 116 -258 7 -16 23 -52
34 -78 24 -54 22 -75 -16 -124 -20 -28 -31 -33 -64 -33 -21 0 -48 5 -58 12
-15 9 -23 9 -35 -1 -44 -37 7 -81 92 -81 85 0 123 42 195 210 8 19 24 55 35
80 11 25 30 68 42 95 12 28 32 73 45 100 67 148 67 147 23 143 -33 -3 -40 -13
-81 -108 -16 -36 -44 -100 -82 -185 -12 -27 -24 -56 -26 -63 -3 -9 -8 -6 -16
10 -35 73 -73 157 -73 162 0 3 -12 31 -26 63 -59 130 -54 123 -90 123 -23 0
-34 -5 -34 -14z"/>
<path d="M2030 906 l0 -316 35 0 35 0 0 117 0 117 28 -25 c39 -36 75 -49 136
-49 90 0 169 46 203 118 25 51 25 183 0 234 -35 73 -113 118 -207 118 -49 0
-66 -5 -108 -34 l-51 -34 -3 32 c-3 27 -7 31 -35 34 l-33 3 0 -315z m317 224
c48 -29 67 -73 67 -151 0 -74 -23 -117 -74 -144 -41 -21 -128 -19 -166 4 -36
22 -74 96 -74 146 0 50 38 124 74 146 42 26 130 26 173 -1z"/>
<path d="M3026 1200 c-57 -29 -84 -58 -112 -118 -31 -67 -31 -126 -1 -195 67
-151 256 -186 379 -70 62 59 87 176 53 256 -51 123 -205 184 -319 127z m177
-62 c73 -42 106 -140 73 -219 -29 -70 -73 -99 -148 -99 -82 0 -123 32 -154
117 -21 61 2 140 54 182 31 27 45 31 94 31 32 0 68 -6 81 -12z"/>
<path d="M4087 1213 c-4 -3 -7 -109 -7 -235 l0 -228 35 0 35 0 0 128 c0 70 3
144 7 166 8 53 62 106 107 106 37 0 59 19 54 47 -7 38 -83 24 -143 -25 l-30
-25 -3 36 c-3 31 -7 37 -26 37 -12 0 -26 -3 -29 -7z"/>
<path d="M4466 1200 c-68 -27 -82 -41 -64 -69 16 -26 19 -26 63 -1 26 15 54
20 105 20 67 0 70 -1 94 -33 15 -20 26 -47 26 -65 l0 -32 -99 0 c-140 0 -185
-22 -211 -103 -10 -33 -9 -43 9 -80 28 -58 80 -87 156 -87 58 0 134 30 136 54
1 6 4 -2 8 -19 5 -25 12 -31 39 -33 l32 -3 0 176 c0 181 -2 194 -45 243 -45
54 -158 68 -249 32z m224 -284 c0 -28 -7 -41 -37 -65 -33 -27 -45 -31 -98 -31
-62 1 -84 10 -103 46 -9 16 -7 27 8 52 l20 32 105 0 105 0 0 -34z"/>
</g>
</svg>
